<svg width="2524" height="520" viewBox="0 0 2524 520" fill="none" xmlns="http://www.w3.org/2000/svg">
<line x1="500.016" y1="22.7777" x2="302.778" y2="386.984" stroke="#FFD600" stroke-width="10" stroke-linecap="square"/>
<circle cx="115" cy="241" r="80" fill="#FFB3B3"/>
<circle cx="207" cy="214" r="80" fill="#FFA95A"/>
<circle cx="309" cy="214" r="80" fill="#95C6FF"/>
<circle cx="412" cy="241" r="80" fill="#81FF62"/>
<g filter="url(#filter0_d_0_1)">
<path d="M4.90514 265.563C3.91927 260.614 7.70504 256 12.751 256H505.212C510.27 256 514.058 260.636 513.051 265.592L464.302 505.592C463.544 509.321 460.266 512 456.462 512H60.5634C56.7477 512 53.4631 509.305 52.7176 505.563L4.90514 265.563Z" fill="white"/>
<path d="M7.35696 265.075C6.67917 261.672 9.28189 258.5 12.751 258.5H505.212C508.689 258.5 511.294 261.687 510.602 265.095L461.852 505.095C461.331 507.658 459.077 509.5 456.462 509.5H60.5634C57.9401 509.5 55.682 507.647 55.1695 505.075L7.35696 265.075Z" stroke="black" stroke-width="5"/>
</g>
<path d="M17 304H500.5L496.492 323H21.0083L17 304Z" fill="#FF8A8A"/>
<path d="M23 331H494.7L490.703 350H26.8839L23 331Z" fill="#FF8A8A"/>
<path d="M697.3 101.67V182.94C697.3 253.03 636.67 325.27 590.23 349.78L600.12 361.39C648.71 333.44 709.77 259.48 709.77 182.94V101.67H697.3ZM698.16 101.67V182.94C698.16 257.76 760.51 329.14 809.53 355.8L818.99 345.05C772.12 321.4 710.63 251.31 710.63 182.94V101.67H698.16ZM881.34 65.12V444.81H895.1V65.12H881.34ZM1088.14 104.25V142.09C1088.14 202.72 1038.26 251.31 987.516 270.23L995.256 281.84C1049.44 259.91 1099.75 209.17 1099.75 142.09V104.25H1088.14ZM1089.43 104.25V141.66C1089.43 202.72 1137.59 251.31 1191.77 271.95L1198.65 260.77C1148.77 242.28 1101.47 196.7 1101.47 141.66V104.25H1089.43ZM993.966 96.08V108.98H1194.78V96.08H993.966ZM1261 65.12V297.75H1275.19V65.12H1261ZM1271.32 170.9V183.8H1337.11V170.9H1271.32ZM1157.37 311.51C1081.69 311.51 1036.54 335.16 1036.54 376.87C1036.54 419.01 1081.69 443.09 1157.37 443.09C1233.05 443.09 1278.2 419.01 1278.2 376.87C1278.2 335.16 1233.05 311.51 1157.37 311.51ZM1157.37 323.98C1221.87 323.98 1264.87 345.05 1264.87 376.87C1264.87 409.55 1221.87 430.62 1157.37 430.62C1092.87 430.62 1049.87 409.55 1049.87 376.87C1049.87 345.05 1092.87 323.98 1157.37 323.98ZM1672.47 65.12V444.81H1686.23V65.12H1672.47ZM1490.58 97.37C1435.97 97.37 1397.7 148.11 1397.7 226.37C1397.7 304.63 1435.97 355.37 1490.58 355.37C1545.19 355.37 1583.46 304.63 1583.46 226.37C1583.46 148.11 1545.19 97.37 1490.58 97.37ZM1490.58 109.41C1537.02 109.41 1569.7 159.29 1569.7 226.37C1569.7 293.45 1537.02 343.76 1490.58 343.76C1444.14 343.76 1411.46 293.45 1411.46 226.37C1411.46 159.29 1444.14 109.41 1490.58 109.41ZM1796.71 102.53V270.23H1964.41V102.53H1796.71ZM1951.08 115V257.76H1810.04V115H1951.08ZM2052.13 64.69V344.62H2066.32V64.69H2052.13ZM2060.3 186.81V199.28H2128.24V186.81H2060.3ZM1838.85 421.59V434.49H2086.96V421.59H1838.85ZM1838.85 318.82V423.74H1852.61V318.82H1838.85ZM2276.56 134.78V158C2276.56 217.77 2226.68 265.07 2175.94 283.13L2183.68 294.74C2237.43 273.24 2288.6 224.22 2288.6 158V134.78H2276.56ZM2278.28 134.78V158C2278.28 219.49 2327.3 266.79 2380.19 287L2388.36 275.39C2338.48 258.19 2290.32 212.61 2290.32 158V134.78H2278.28ZM2182.39 123.17V136.07H2383.63V123.17H2182.39ZM2276.56 67.27V133.06H2290.75V67.27H2276.56ZM2447.7 64.69V346.34H2461.89V64.69H2447.7ZM2455.87 188.96V201.86H2523.81V188.96H2455.87ZM2234.42 421.59V434.49H2482.53V421.59H2234.42ZM2234.42 322.26V425.03H2248.18V322.26H2234.42Z" fill="black"/>
<defs>
<filter id="filter0_d_0_1" x="0.74823" y="256" width="516.466" height="264" filterUnits="userSpaceOnUse" color-interpolation-filters="sRGB">
<feFlood flood-opacity="0" result="BackgroundImageFix"/>
<feColorMatrix in="SourceAlpha" type="matrix" values="0 0 0 0 0 0 0 0 0 0 0 0 0 0 0 0 0 0 127 0" result="hardAlpha"/>
<feOffset dy="4"/>
<feGaussianBlur stdDeviation="2"/>
<feComposite in2="hardAlpha" operator="out"/>
<feColorMatrix type="matrix" values="0 0 0 0 0 0 0 0 0 0 0 0 0 0 0 0 0 0 0.25 0"/>
<feBlend mode="normal" in2="BackgroundImageFix" result="effect1_dropShadow_0_1"/>
<feBlend mode="normal" in="SourceGraphic" in2="effect1_dropShadow_0_1" result="shape"/>
</filter>
</defs>
</svg>
