<svg width="2973" height="520" viewBox="0 0 2973 520" fill="none" xmlns="http://www.w3.org/2000/svg">
<rect x="-3.22125" y="1.45724" width="14.9147" height="411" transform="matrix(-0.935698 -0.352802 -0.352802 0.935698 430.229 51.0482)" fill="#FFD600" stroke="black" stroke-width="5"/>
<path d="M256.5 301C256.5 346.092 243.204 386.815 221.831 416.202C200.456 445.592 171.14 463.5 139 463.5C106.86 463.5 77.5436 445.592 56.169 416.202C34.7962 386.815 21.5 346.092 21.5 301C21.5 255.908 34.7962 215.185 56.169 185.798C77.5436 156.408 106.86 138.5 139 138.5C171.14 138.5 200.456 156.408 221.831 185.798C243.204 215.185 256.5 255.908 256.5 301Z" fill="#FFA95A" stroke="black" stroke-width="5"/>
<path d="M256.5 301C256.5 346.092 243.204 386.815 221.831 416.202C200.456 445.592 171.14 463.5 139 463.5C106.86 463.5 77.5436 445.592 56.169 416.202C34.7962 386.815 21.5 346.092 21.5 301C21.5 255.908 34.7962 215.185 56.169 185.798C77.5436 156.408 106.86 138.5 139 138.5C171.14 138.5 200.456 156.408 221.831 185.798C243.204 215.185 256.5 255.908 256.5 301Z" fill="#FFA95A" stroke="black" stroke-width="5"/>
<path d="M388.5 301C388.5 346.092 375.204 386.815 353.831 416.202C332.456 445.592 303.14 463.5 271 463.5C238.86 463.5 209.544 445.592 188.169 416.202C166.796 386.815 153.5 346.092 153.5 301C153.5 255.908 166.796 215.185 188.169 185.798C209.544 156.408 238.86 138.5 271 138.5C303.14 138.5 332.456 156.408 353.831 185.798C375.204 215.185 388.5 255.908 388.5 301Z" fill="#FFA95A" stroke="black" stroke-width="5"/>
<path d="M496.5 301C496.5 346.092 483.204 386.815 461.831 416.202C440.456 445.592 411.14 463.5 379 463.5C346.86 463.5 317.544 445.592 296.169 416.202C274.796 386.815 261.5 346.092 261.5 301C261.5 255.908 274.796 215.185 296.169 185.798C317.544 156.408 346.86 138.5 379 138.5C411.14 138.5 440.456 156.408 461.831 185.798C483.204 215.185 496.5 255.908 496.5 301Z" fill="#FFA95A" stroke="black" stroke-width="5"/>
<g filter="url(#filter0_d_5_185)">
<path d="M4.90514 265.563C3.91927 260.614 7.70504 256 12.751 256H505.212C510.27 256 514.058 260.636 513.051 265.592L464.302 505.592C463.544 509.321 460.266 512 456.462 512H60.5634C56.7477 512 53.4631 509.305 52.7176 505.563L4.90514 265.563Z" fill="white"/>
<path d="M12.751 258.5H505.212C508.689 258.5 511.294 261.687 510.602 265.095L461.852 505.095C461.331 507.658 459.077 509.5 456.462 509.5H60.5634C57.9401 509.5 55.682 507.647 55.1695 505.075L7.35696 265.075C6.67917 261.672 9.28189 258.5 12.751 258.5Z" stroke="black" stroke-width="5"/>
</g>
<path d="M17 304H500.5L496.492 323H21.0083L17 304Z" fill="#FF8A8A"/>
<path d="M23 331H494.7L490.703 350H26.8839L23 331Z" fill="#FF8A8A"/>
<path d="M759.3 109.67V190.94C759.3 261.03 698.67 333.27 652.23 357.78L662.12 369.39C710.71 341.44 771.77 267.48 771.77 190.94V109.67H759.3ZM760.16 109.67V190.94C760.16 265.76 822.51 337.14 871.53 363.8L880.99 353.05C834.12 329.4 772.63 259.31 772.63 190.94V109.67H760.16ZM943.34 73.12V452.81H957.1V73.12H943.34ZM1236.14 112.25V150.09C1236.14 210.72 1186.26 259.31 1135.52 278.23L1143.26 289.84C1197.44 267.91 1247.75 217.17 1247.75 150.09V112.25H1236.14ZM1237.43 112.25V149.66C1237.43 210.72 1285.59 259.31 1339.77 279.95L1346.65 268.77C1296.77 250.28 1249.47 204.7 1249.47 149.66V112.25H1237.43ZM1141.97 104.08V116.98H1342.78V104.08H1141.97ZM1409 73.12V305.75H1423.19V73.12H1409ZM1419.32 178.9V191.8H1485.11V178.9H1419.32ZM1305.37 319.51C1229.69 319.51 1184.54 343.16 1184.54 384.87C1184.54 427.01 1229.69 451.09 1305.37 451.09C1381.05 451.09 1426.2 427.01 1426.2 384.87C1426.2 343.16 1381.05 319.51 1305.37 319.51ZM1305.37 331.98C1369.87 331.98 1412.87 353.05 1412.87 384.87C1412.87 417.55 1369.87 438.62 1305.37 438.62C1240.87 438.62 1197.87 417.55 1197.87 384.87C1197.87 353.05 1240.87 331.98 1305.37 331.98ZM1906.47 73.12V452.81H1920.23V73.12H1906.47ZM1724.58 105.37C1669.97 105.37 1631.7 156.11 1631.7 234.37C1631.7 312.63 1669.97 363.37 1724.58 363.37C1779.19 363.37 1817.46 312.63 1817.46 234.37C1817.46 156.11 1779.19 105.37 1724.58 105.37ZM1724.58 117.41C1771.02 117.41 1803.7 167.29 1803.7 234.37C1803.7 301.45 1771.02 351.76 1724.58 351.76C1678.14 351.76 1645.46 301.45 1645.46 234.37C1645.46 167.29 1678.14 117.41 1724.58 117.41ZM2116.71 110.53V278.23H2284.41V110.53H2116.71ZM2271.08 123V265.76H2130.04V123H2271.08ZM2372.13 72.69V352.62H2386.32V72.69H2372.13ZM2380.3 194.81V207.28H2448.24V194.81H2380.3ZM2158.85 429.59V442.49H2406.96V429.59H2158.85ZM2158.85 326.82V431.74H2172.61V326.82H2158.85ZM2682.56 142.78V166C2682.56 225.77 2632.68 273.07 2581.94 291.13L2589.68 302.74C2643.43 281.24 2694.6 232.22 2694.6 166V142.78H2682.56ZM2684.28 142.78V166C2684.28 227.49 2733.3 274.79 2786.19 295L2794.36 283.39C2744.48 266.19 2696.32 220.61 2696.32 166V142.78H2684.28ZM2588.39 131.17V144.07H2789.63V131.17H2588.39ZM2682.56 75.27V141.06H2696.75V75.27H2682.56ZM2853.7 72.69V354.34H2867.89V72.69H2853.7ZM2861.87 196.96V209.86H2929.81V196.96H2861.87ZM2640.42 429.59V442.49H2888.53V429.59H2640.42ZM2640.42 330.26V433.03H2654.18V330.26H2640.42Z" fill="black"/>
<defs>
<filter id="filter0_d_5_185" x="0.74823" y="256" width="516.466" height="264" filterUnits="userSpaceOnUse" color-interpolation-filters="sRGB">
<feFlood flood-opacity="0" result="BackgroundImageFix"/>
<feColorMatrix in="SourceAlpha" type="matrix" values="0 0 0 0 0 0 0 0 0 0 0 0 0 0 0 0 0 0 127 0" result="hardAlpha"/>
<feOffset dy="4"/>
<feGaussianBlur stdDeviation="2"/>
<feComposite in2="hardAlpha" operator="out"/>
<feColorMatrix type="matrix" values="0 0 0 0 0 0 0 0 0 0 0 0 0 0 0 0 0 0 0.25 0"/>
<feBlend mode="normal" in2="BackgroundImageFix" result="effect1_dropShadow_5_185"/>
<feBlend mode="normal" in="SourceGraphic" in2="effect1_dropShadow_5_185" result="shape"/>
</filter>
</defs>
</svg>
