<svg width="1139" height="520" viewBox="0 0 1139 520" fill="none" xmlns="http://www.w3.org/2000/svg">
<path d="M632.2 52.18V93.76C632.2 129.62 601.18 166.58 577.42 179.12L582.48 185.06C607.34 170.76 638.58 132.92 638.58 93.76V52.18H632.2ZM632.64 52.18V93.76C632.64 132.04 664.54 168.56 689.62 182.2L694.46 176.7C670.48 164.6 639.02 128.74 639.02 93.76V52.18H632.64ZM726.36 33.48V227.74H733.4V33.48H726.36ZM832.163 53.5V72.86C832.163 103.88 806.643 128.74 780.683 138.42L784.643 144.36C812.363 133.14 838.103 107.18 838.103 72.86V53.5H832.163ZM832.823 53.5V72.64C832.823 103.88 857.463 128.74 885.183 139.3L888.703 133.58C863.183 124.12 838.983 100.8 838.983 72.64V53.5H832.823ZM783.983 49.32V55.92H886.723V49.32H783.983ZM920.603 33.48V152.5H927.863V33.48H920.603ZM925.883 87.6V94.2H959.543V87.6H925.883ZM867.583 159.54C828.863 159.54 805.763 171.64 805.763 192.98C805.763 214.54 828.863 226.86 867.583 226.86C906.303 226.86 929.403 214.54 929.403 192.98C929.403 171.64 906.303 159.54 867.583 159.54ZM867.583 165.92C900.583 165.92 922.583 176.7 922.583 192.98C922.583 209.7 900.583 220.48 867.583 220.48C834.583 220.48 812.583 209.7 812.583 192.98C812.583 176.7 834.583 165.92 867.583 165.92ZM1131.13 33.48V227.74H1138.17V33.48H1131.13ZM1038.07 49.98C1010.13 49.98 990.546 75.94 990.546 115.98C990.546 156.02 1010.13 181.98 1038.07 181.98C1066.01 181.98 1085.59 156.02 1085.59 115.98C1085.59 75.94 1066.01 49.98 1038.07 49.98ZM1038.07 56.14C1061.83 56.14 1078.55 81.66 1078.55 115.98C1078.55 150.3 1061.83 176.04 1038.07 176.04C1014.31 176.04 997.586 150.3 997.586 115.98C997.586 81.66 1014.31 56.14 1038.07 56.14ZM587.54 318.62V404.42H673.34V318.62H587.54ZM666.52 325V398.04H594.36V325H666.52ZM718.22 299.26V442.48H725.48V299.26H718.22ZM722.4 361.74V368.12H757.16V361.74H722.4ZM609.1 481.86V488.46H736.04V481.86H609.1ZM609.1 429.28V482.96H616.14V429.28H609.1ZM833.043 335.12V347C833.043 377.58 807.523 401.78 781.563 411.02L785.523 416.96C813.023 405.96 839.203 380.88 839.203 347V335.12H833.043ZM833.923 335.12V347C833.923 378.46 859.003 402.66 886.063 413L890.243 407.06C864.723 398.26 840.083 374.94 840.083 347V335.12H833.923ZM784.863 329.18V335.78H887.823V329.18H784.863ZM833.043 300.58V334.24H840.303V300.58H833.043ZM920.603 299.26V443.36H927.863V299.26H920.603ZM924.783 362.84V369.44H959.543V362.84H924.783ZM811.483 481.86V488.46H938.423V481.86H811.483ZM811.483 431.04V483.62H818.523V431.04H811.483Z" fill="black"/>
<path d="M632.2 52.18V93.76C632.2 129.62 601.18 166.58 577.42 179.12L582.48 185.06C607.34 170.76 638.58 132.92 638.58 93.76V52.18H632.2ZM632.64 52.18V93.76C632.64 132.04 664.54 168.56 689.62 182.2L694.46 176.7C670.48 164.6 639.02 128.74 639.02 93.76V52.18H632.64ZM726.36 33.48V227.74H733.4V33.48H726.36ZM832.163 53.5V72.86C832.163 103.88 806.643 128.74 780.683 138.42L784.643 144.36C812.363 133.14 838.103 107.18 838.103 72.86V53.5H832.163ZM832.823 53.5V72.64C832.823 103.88 857.463 128.74 885.183 139.3L888.703 133.58C863.183 124.12 838.983 100.8 838.983 72.64V53.5H832.823ZM783.983 49.32V55.92H886.723V49.32H783.983ZM920.603 33.48V152.5H927.863V33.48H920.603ZM925.883 87.6V94.2H959.543V87.6H925.883ZM867.583 159.54C828.863 159.54 805.763 171.64 805.763 192.98C805.763 214.54 828.863 226.86 867.583 226.86C906.303 226.86 929.403 214.54 929.403 192.98C929.403 171.64 906.303 159.54 867.583 159.54ZM867.583 165.92C900.583 165.92 922.583 176.7 922.583 192.98C922.583 209.7 900.583 220.48 867.583 220.48C834.583 220.48 812.583 209.7 812.583 192.98C812.583 176.7 834.583 165.92 867.583 165.92ZM1131.13 33.48V227.74H1138.17V33.48H1131.13ZM1038.07 49.98C1010.13 49.98 990.546 75.94 990.546 115.98C990.546 156.02 1010.13 181.98 1038.07 181.98C1066.01 181.98 1085.59 156.02 1085.59 115.98C1085.59 75.94 1066.01 49.98 1038.07 49.98ZM1038.07 56.14C1061.83 56.14 1078.55 81.66 1078.55 115.98C1078.55 150.3 1061.83 176.04 1038.07 176.04C1014.31 176.04 997.586 150.3 997.586 115.98C997.586 81.66 1014.31 56.14 1038.07 56.14ZM587.54 318.62V404.42H673.34V318.62H587.54ZM666.52 325V398.04H594.36V325H666.52ZM718.22 299.26V442.48H725.48V299.26H718.22ZM722.4 361.74V368.12H757.16V361.74H722.4ZM609.1 481.86V488.46H736.04V481.86H609.1ZM609.1 429.28V482.96H616.14V429.28H609.1ZM833.043 335.12V347C833.043 377.58 807.523 401.78 781.563 411.02L785.523 416.96C813.023 405.96 839.203 380.88 839.203 347V335.12H833.043ZM833.923 335.12V347C833.923 378.46 859.003 402.66 886.063 413L890.243 407.06C864.723 398.26 840.083 374.94 840.083 347V335.12H833.923ZM784.863 329.18V335.78H887.823V329.18H784.863ZM833.043 300.58V334.24H840.303V300.58H833.043ZM920.603 299.26V443.36H927.863V299.26H920.603ZM924.783 362.84V369.44H959.543V362.84H924.783ZM811.483 481.86V488.46H938.423V481.86H811.483ZM811.483 431.04V483.62H818.523V431.04H811.483Z" fill="black"/>
<rect x="-3.22125" y="1.45724" width="14.9147" height="411" transform="matrix(-0.935698 -0.352802 -0.352802 0.935698 430.229 51.0482)" fill="#FFD600" stroke="black" stroke-width="5"/>
<path d="M256.5 301C256.5 346.092 243.204 386.815 221.831 416.202C200.456 445.592 171.14 463.5 139 463.5C106.86 463.5 77.5436 445.592 56.169 416.202C34.7962 386.815 21.5 346.092 21.5 301C21.5 255.908 34.7962 215.185 56.169 185.798C77.5436 156.408 106.86 138.5 139 138.5C171.14 138.5 200.456 156.408 221.831 185.798C243.204 215.185 256.5 255.908 256.5 301Z" fill="#FFA95A" stroke="black" stroke-width="5"/>
<path d="M256.5 301C256.5 346.092 243.204 386.815 221.831 416.202C200.456 445.592 171.14 463.5 139 463.5C106.86 463.5 77.5436 445.592 56.169 416.202C34.7962 386.815 21.5 346.092 21.5 301C21.5 255.908 34.7962 215.185 56.169 185.798C77.5436 156.408 106.86 138.5 139 138.5C171.14 138.5 200.456 156.408 221.831 185.798C243.204 215.185 256.5 255.908 256.5 301Z" fill="#FFA95A" stroke="black" stroke-width="5"/>
<path d="M388.5 301C388.5 346.092 375.204 386.815 353.831 416.202C332.456 445.592 303.14 463.5 271 463.5C238.86 463.5 209.544 445.592 188.169 416.202C166.796 386.815 153.5 346.092 153.5 301C153.5 255.908 166.796 215.185 188.169 185.798C209.544 156.408 238.86 138.5 271 138.5C303.14 138.5 332.456 156.408 353.831 185.798C375.204 215.185 388.5 255.908 388.5 301Z" fill="#FFA95A" stroke="black" stroke-width="5"/>
<path d="M496.5 301C496.5 346.092 483.204 386.815 461.831 416.202C440.456 445.592 411.14 463.5 379 463.5C346.86 463.5 317.544 445.592 296.169 416.202C274.796 386.815 261.5 346.092 261.5 301C261.5 255.908 274.796 215.185 296.169 185.798C317.544 156.408 346.86 138.5 379 138.5C411.14 138.5 440.456 156.408 461.831 185.798C483.204 215.185 496.5 255.908 496.5 301Z" fill="#FFA95A" stroke="black" stroke-width="5"/>
<g filter="url(#filter0_d_0_1)">
<path d="M4.90514 265.563C3.91927 260.614 7.70504 256 12.751 256H505.212C510.27 256 514.058 260.636 513.051 265.592L464.302 505.592C463.544 509.321 460.266 512 456.462 512H60.5634C56.7477 512 53.4631 509.305 52.7176 505.563L4.90514 265.563Z" fill="white"/>
<path d="M12.751 258.5H505.212C508.689 258.5 511.294 261.687 510.602 265.095L461.852 505.095C461.331 507.658 459.077 509.5 456.462 509.5H60.5634C57.9401 509.5 55.682 507.647 55.1695 505.075L7.35696 265.075C6.67917 261.672 9.28189 258.5 12.751 258.5Z" stroke="black" stroke-width="5"/>
</g>
<path d="M17 304H500.5L496.492 323H21.0083L17 304Z" fill="#FF8A8A"/>
<path d="M23 331H494.7L490.703 350H26.8839L23 331Z" fill="#FF8A8A"/>
<defs>
<filter id="filter0_d_0_1" x="0.74823" y="256" width="516.466" height="264" filterUnits="userSpaceOnUse" color-interpolation-filters="sRGB">
<feFlood flood-opacity="0" result="BackgroundImageFix"/>
<feColorMatrix in="SourceAlpha" type="matrix" values="0 0 0 0 0 0 0 0 0 0 0 0 0 0 0 0 0 0 127 0" result="hardAlpha"/>
<feOffset dy="4"/>
<feGaussianBlur stdDeviation="2"/>
<feComposite in2="hardAlpha" operator="out"/>
<feColorMatrix type="matrix" values="0 0 0 0 0 0 0 0 0 0 0 0 0 0 0 0 0 0 0.25 0"/>
<feBlend mode="normal" in2="BackgroundImageFix" result="effect1_dropShadow_0_1"/>
<feBlend mode="normal" in="SourceGraphic" in2="effect1_dropShadow_0_1" result="shape"/>
</filter>
</defs>
</svg>
